<svg xmlns="http://www.w3.org/2000/svg" width="38.072" height="38.077" viewBox="0 0 38.072 38.077"><g transform="translate(-8.361 -10.751)"><path d="M55.588,70.227h0a.285.285,0,0,0,.217-.279.291.291,0,0,0-.1-.235.619.619,0,0,0-.353-.087,2.2,2.2,0,0,0-.322,0v1.158h.18V70.3h.124a.217.217,0,0,1,.248.2.756.756,0,0,0,.074.291h.192a.793.793,0,0,1-.074-.279C55.749,70.333,55.687,70.246,55.588,70.227Zm-.248-.074h-.13v-.39h.13c.2,0,.279.1.279.2s-.13.192-.279.192Z" transform="translate(-17.759 -22.402)" fill="#fff"/><path d="M54.54,57.8l.762.768L56.07,57l-.012-.006Z" transform="translate(-17.573 -17.595)" fill="#fff"/><path d="M51.695,52.127c.4-.4.223-.725-.105-1.059L51.5,51l-.973.966.081.081C50.957,52.381,51.3,52.518,51.695,52.127Z" transform="translate(-16.047 -15.316)" fill="#fff"/><path d="M54.972,68.88h0a1.035,1.035,0,1,0,1,1.028,1,1,0,0,0-1-1.028Zm0,1.9a.873.873,0,0,1,0-1.747h0a.873.873,0,1,1,0,1.747Z" transform="translate(-17.329 -22.12)" fill="#fff"/><path d="M43.193,40.386a19.03,19.03,0,1,0-5.216,5.21l.9.9,2.311,2.317,1.858-1.858h0l3.382-3.376ZM27.384,40.02a10.252,10.252,0,1,1,9.366-6.1L32.6,29.768,27.378,35l4.163,4.157a10.221,10.221,0,0,1-4.157.861ZM32.2,32.469l.545-.551,1.927,1.927-.551.545L33.5,33.77,30.81,36.433l-.619-.619,2.67-2.676Zm1.332,6.7.52-2.081h0l-1.295,1.295-.619-.619,3.215-3.215.849.849a1.313,1.313,0,0,1,.105,2.044,1.2,1.2,0,0,1-1.549.229l-.446,2.267Zm4.095,4.088-.669-.669.427-.923-1.115-1.121-.942.415-.663-.663,4.559-2.05.483.489Zm3.339,3.475-.452-.452.558-3.946h0l-2.181,2.187-.619-.619,3.314-3.32.452.452-.582,3.946h0l2.168-2.162.619.619Z" transform="translate(0)" fill="#fff"/></g></svg>