<?xml version="1.0" encoding="utf-8"?>
<!-- Generator: Adobe Illustrator 23.0.1, SVG Export Plug-In . SVG Version: 6.00 Build 0)  -->
<svg version="1.1" id="Calque_1" xmlns="http://www.w3.org/2000/svg" xmlns:xlink="http://www.w3.org/1999/xlink" x="0px" y="0px"
	 viewBox="0 0 235.7 48.9" style="enable-background:new 0 0 235.7 48.9;" xml:space="preserve">
<style type="text/css">
	.st0{fill:#FFFFFF;}
	.st1{fill:none;}
</style>
<path class="st0" d="M32.9,30H30c-0.3,0-0.6,0.1-0.9,0.4c-0.2,0.2-0.3,0.5-0.3,0.8l0,0c-0.2,2.2-1.1,4.3-2.7,5.9
	c-1.6,1.5-3.7,2.3-5.9,2.3c-2.4,0-4.7-0.9-6.3-2.6c-1.8-2-2.7-4.7-2.6-7.4v-9.1c-0.2-2.8,0.8-5.5,2.6-7.6c1.6-1.7,3.9-2.6,6.3-2.6
	c2.2-0.1,4.3,0.7,5.9,2.3c1.4,1.4,2.4,3.3,2.7,5.3l0,0c0,0.3,0.2,0.7,0.4,0.9c0.2,0.2,0.5,0.3,0.8,0.3h2.7c0.3,0,0.6-0.1,0.9-0.3
	c0.3-0.2,0.4-0.6,0.4-0.9v-0.2l0,0c-0.3-3.3-1.8-6.4-4.2-8.7c-5.6-5-14.1-4.8-19.5,0.5C7.6,12.1,6.1,16,6.2,20v9.1
	c-0.1,4,1.3,7.9,4,10.8c2.6,2.7,6.3,4.2,10,4.1c7.3,0.1,13.3-5.5,13.7-12.8l0,0c0-0.3-0.1-0.6-0.3-0.9C33.5,30.1,33.2,30,32.9,30z
	 M30,17.6L30,17.6z"/>
<line class="st1" x1="30" y1="17.6" x2="30" y2="17.6"/>
<path class="st0" d="M63.6,5.1c-3.7-0.1-7.3,1.4-10,4.1c-2.7,2.9-4.2,6.8-4,10.8v9.1c-0.1,4,1.3,7.9,4.1,10.8c5.6,5.4,14.4,5.4,20,0
	c2.7-2.9,4.2-6.8,4.1-10.8V20c0.1-4-1.3-7.9-4.1-10.8C71,6.5,67.4,5,63.6,5.1z M63.6,39.2c-2.4,0-4.7-0.9-6.3-2.6
	c-1.8-2-2.7-4.7-2.6-7.4v-9c-0.1-2.7,0.8-5.4,2.6-7.5c3.4-3.5,9-3.5,12.5-0.1c0,0,0.1,0.1,0.1,0.1c1.9,2.1,2.9,4.7,2.8,7.5v9
	c0.1,2.7-0.8,5.4-2.6,7.4C68.4,38.3,66,39.2,63.6,39.2z"/>
<path class="st0" d="M116.5,25.6c-3.1-2.3-7.6-3-11.3-4.2c-1.6-0.4-3.2-1.2-4.5-2.3c-1.2-1-1.8-2.5-1.7-4c0-0.9,0.2-1.9,0.5-2.8
	c0.5-1.1,1.4-1.9,2.5-2.3c1.5-0.5,3-0.7,4.5-0.6c2.1-0.2,4.1,0.4,5.7,1.7c1,1,1.6,2.4,1.6,3.8l0,0c0,0.4,0.2,0.7,0.4,1
	c0.3,0.3,0.6,0.4,1,0.4h2.3c0.4,0,0.8-0.1,1-0.4c0.3-0.3,0.4-0.7,0.4-1.1c0-2.4-0.9-4.8-2.5-6.6c-2.6-2.5-6.2-3.8-9.8-3.5
	c-3.2-0.2-6.3,0.7-9,2.4c-2.4,1.8-3.8,4.8-3.6,7.8c-0.2,3.1,1.1,6.2,3.5,8.2c3.1,2.5,7.6,3.3,11.3,4.3c1.6,0.4,3.1,1.1,4.5,2
	c1.1,0.8,1.8,2.2,1.7,3.6c0.1,1.9-0.7,3.6-2.3,4.7c-1.8,1-3.8,1.5-5.9,1.4c-2.7,0.2-5.3-0.8-7.1-2.8c-1-1.2-1.6-2.8-1.7-4.4l0,0
	c0-0.4-0.2-0.7-0.4-0.9c-0.3-0.3-0.6-0.5-1-0.5h-2.3c-0.4,0-0.8,0.2-1,0.5c-0.3,0.3-0.4,0.7-0.4,1c0.1,2.8,1.2,5.5,3.1,7.6
	c2.8,2.9,6.8,4.4,10.8,4.2c3.2,0.1,6.3-0.7,9-2.4c2.8-1.9,4.4-5.1,4.2-8.5C120.2,30.2,118.8,27.4,116.5,25.6z"/>
<path class="st0" d="M140.1,5.6h-2.3c-0.4,0-0.8,0.2-1,0.5c-0.3,0.3-0.4,0.6-0.4,1v35c0,0.8,0.6,1.4,1.4,1.4c0,0,0.1,0,0.1,0h2.3
	c0.4,0,0.8-0.1,1-0.4c0.3-0.3,0.4-0.7,0.4-1v-35c0-0.4-0.1-0.7-0.4-1C140.8,5.8,140.5,5.6,140.1,5.6z"/>
<path class="st0" d="M186,5.6h-2.3c-0.4,0-0.8,0.2-1,0.5c-0.3,0.3-0.4,0.6-0.4,1v26.3l-17-26.8l0,0c-0.1-0.2-0.3-0.4-0.5-0.6
	c-0.3-0.3-0.6-0.4-1-0.4h-2.6c-0.4,0-0.8,0.2-1.1,0.5c-0.3,0.3-0.4,0.6-0.4,1v35c0,0.4,0.2,0.8,0.4,1c0.3,0.3,0.7,0.4,1,0.4h2.3
	c0.4,0,0.7-0.1,1-0.4c0.3-0.3,0.5-0.6,0.5-1V14.8l17.3,27.4l0,0c0.2,0.4,0.6,0.8,1,1c0.3,0.2,0.6,0.2,0.9,0.2h1.8
	c0.8,0,1.4-0.6,1.4-1.4c0,0,0,0,0,0v-35c0-0.4-0.1-0.8-0.4-1C186.7,5.8,186.4,5.6,186,5.6z"/>
<path class="st0" d="M228,10.5c0.4,0,0.8-0.1,1-0.4c0.3-0.3,0.4-0.6,0.4-1v-2c0-0.4-0.1-0.7-0.4-1c-0.3-0.3-0.7-0.5-1.1-0.5h-20.9
	c-0.4,0-0.8,0.2-1.1,0.5c-0.3,0.3-0.4,0.6-0.4,1v35c0,0.4,0.2,0.8,0.4,1c0.3,0.3,0.7,0.4,1,0.4H228c0.4,0,0.8-0.1,1.1-0.4
	c0.3-0.3,0.4-0.7,0.4-1v-1.9c0-0.4-0.1-0.8-0.4-1c-0.3-0.3-0.7-0.4-1.1-0.4h-17.2V26.7h13.7c0.4,0,0.7-0.1,1-0.4
	c0.3-0.3,0.5-0.6,0.5-1v-2c0-0.4-0.2-0.7-0.4-1c-0.3-0.3-0.6-0.4-1-0.5h-13.7V10.5L228,10.5z"/>
</svg>
