<svg xmlns="http://www.w3.org/2000/svg" width="65.047" height="13.5" viewBox="0 0 65.047 13.5"><g transform="translate(-10.844 -8.93)"><path d="M27.46,12.08a4.94,4.94,0,0,0-5.06,5.11,5.06,5.06,0,0,0,10.12,0,4.94,4.94,0,0,0-5.06-5.11Zm0,7.86A2.49,2.49,0,0,1,25,17.19a2.47,2.47,0,1,1,4.9,0,2.47,2.47,0,0,1-2.44,2.75Z" fill="#fff"/><path d="M35.83,13.8V12.37H33.3V22h2.6V17.61c0-2.08,1.16-2.73,2.49-2.73a3.91,3.91,0,0,1,.79.08V12.33a5.86,5.86,0,0,0-.61,0A2.87,2.87,0,0,0,35.83,13.8Z" fill="#fff"/><path d="M44.55,12.08a4.94,4.94,0,0,0-5.06,5.11,5.06,5.06,0,1,0,10.12,0,4.94,4.94,0,0,0-5.06-5.11Zm0,7.86a2.49,2.49,0,0,1-2.45-2.75,2.47,2.47,0,1,1,4.9,0,2.47,2.47,0,0,1-2.45,2.75Z" fill="#fff"/><path d="M55.7,12.11a3.2,3.2,0,0,0-2.78,1.46v-1.2H50.39V22H53V16.47a1.82,1.82,0,0,1,1.81-2,1.69,1.69,0,0,1,1.78,1.92V22H59.2V15.94C59.19,13.82,58.09,12.11,55.7,12.11Z" fill="#fff"/><path d="M64.61,12.08a4.84,4.84,0,0,0-4.74,5.07,4.88,4.88,0,0,0,5,5.16,4.34,4.34,0,0,0,4.39-3.06l-2.18-.64a2.13,2.13,0,0,1-2.19,1.47,2.35,2.35,0,0,1-2.43-2.2h6.9v-.8C69.38,14,67.59,12.08,64.61,12.08Zm-2.11,4a2.08,2.08,0,0,1,2.15-1.91,1.94,1.94,0,0,1,2.16,1.91Z" fill="#fff"/><path d="M75.89,14.68V12.37h-2V9.49h-2.3v1.35a1.39,1.39,0,0,1-1.49,1.53h-.49v2.31h1.75v4.49a2.79,2.79,0,0,0,3.06,3,3.84,3.84,0,0,0,1.47-.24V19.76a3.75,3.75,0,0,1-.81.08c-.74,0-1.14-.27-1.14-1.12v-4Z" fill="#fff"/><path d="M15.93,15.7a1.65,1.65,0,1,0,1.65-1.65,1.65,1.65,0,0,0-1.65,1.65Z" fill="#fff"/><path d="M17.58,19.69a4,4,0,1,1,2.79-6.78l2-2a6.75,6.75,0,1,0,0,9.54l-2-2a3.93,3.93,0,0,1-2.79,1.24Z" fill="#fff"/></g></svg>