<svg xmlns="http://www.w3.org/2000/svg" width="91.855" height="38.077" viewBox="0 0 91.855 38.077"><g transform="translate(-6.48 -7.496)"><path d="M6.48,8.28v.58c3.22,0,3.3,1.31,3.3,4.77V39c0,3.46-.08,4.82-3.3,4.77v.58H17.54v-.58c-3.2,0-3.3-1.31-3.3-4.77V26.77l3.93.06c1.58,0,2.36,2.15,2.36,4.38v.31h.82v-11h-.82c0,2.31-.76,3.46-2.33,3.46h-.05l-3.91-.05V12.56a5.68,5.68,0,0,1,.34-2,1.47,1.47,0,0,1,1.52-.79h2.47a.25.25,0,0,0,.18.05,1.43,1.43,0,0,1,.37.06,2.792,2.792,0,0,1,.39.1,3.79,3.79,0,0,1,2,1.29c.69.73,1.21,3.51,1.58,5.11h.84L23.27,8.3Z" fill="#fff"/><path d="M37.16,43H34.2a1.55,1.55,0,0,1-1-.39,2.34,2.34,0,0,1-.5-1.29,13.15,13.15,0,0,1-.21-2.57v-25c0-3.46.15-4.82,3.35-4.77v-.7H25.01v.58c3.2,0,3.31,1.31,3.31,4.77v5.22h0V32.54h0V39c0,3.46.18,4.64-3,4.59v.76H43.4l.76-7.61h-.81C42.28,40.26,40.2,43,37.16,43Z" fill="#fff"/><path d="M98.3,35.56a10.32,10.32,0,0,0-2.83-6c-3.47-3.78-7.87-7.9-10.13-11.1-2.83-4,0-8.5,3.8-8.5,3.6,0,6.48,3.31,7.06,6.61H97l-.13-5.19a10.51,10.51,0,0,0-3.78-2.52C82.82,5.53,78.16,16.6,84,22.71c3.31,3.46,8.92,9.57,10.44,11.43,4.22,5.12-2,13.59-8.89,7.64C84,40.49,82.8,38.6,82,35.4h-.81l.11,6.35C89.12,48.86,99,45.63,98.3,35.56Z" fill="#fff"/><path d="M80.18,19.8c-.11-.29-.21-.58-.32-.84a18.92,18.92,0,0,0-5.93-7.79,18.59,18.59,0,0,0-8.78-3.54,19.6,19.6,0,0,0-9.6,1.28,18.84,18.84,0,0,0-6.35,3.91A18.59,18.59,0,0,0,45,18.49a17.66,17.66,0,0,0-1.78,6.71,20.5,20.5,0,0,0,1.08,7.48c.1.26.23.55.34.81a17,17,0,0,0,6.19,8.31,17.7,17.7,0,0,0,9.28,3.31A22.12,22.12,0,0,0,69,43.85a21.92,21.92,0,0,0,7.5-5.06,17.76,17.76,0,0,0,4.72-8.71A17.14,17.14,0,0,0,80.18,19.8ZM74.85,36.19a12.4,12.4,0,0,1-6.69,5.43,12.11,12.11,0,0,1-8.57.44,14.24,14.24,0,0,1-6.48-4.59,22,22,0,0,1-3.62-6.11,3.66,3.66,0,0,1-.21-.55c-1.71-4.74-1.78-8.91-.21-12.48a12.91,12.91,0,0,1,14.14-8,13.54,13.54,0,0,1,6.66,3.17,18,18,0,0,1,5.06,7.37,4.13,4.13,0,0,1,.21.55,23.25,23.25,0,0,1,1.44,7A14.71,14.71,0,0,1,74.85,36.19Z" fill="#fff"/></g></svg>